<svg width="36" height="36" viewBox="0 0 36 36" fill="none" xmlns="http://www.w3.org/2000/svg">
<path d="M28.8002 31C28.8002 26.1238 23.9595 21.7799 18 21.7799C12.0405 21.7799 7.2002 26.1238 7.2002 31M18 17.9999C19.6673 17.9999 21.2662 17.3362 22.4451 16.1547C23.6241 14.9732 24.2864 13.3708 24.2864 11.6999C24.2864 10.029 23.6241 8.42661 22.4451 7.24513C21.2662 6.06365 19.6673 5.3999 18 5.3999C16.3328 5.3999 14.7338 6.06365 13.5549 7.24513C12.3759 8.42661 11.7136 10.029 11.7136 11.6999C11.7136 13.3708 12.3759 14.9732 13.5549 16.1547C14.7338 17.3362 16.3328 17.9999 18 17.9999Z" stroke="white" stroke-width="2" stroke-linecap="round" stroke-linejoin="round"/>
<circle cx="18" cy="18" r="17" stroke="white" stroke-width="2"/>
</svg>
