<svg width="23" height="17" viewBox="0 0 23 17" fill="none" xmlns="http://www.w3.org/2000/svg">
<path d="M19.1202 4.04546H9.21387V9.79016H8.15874V7.83746C8.15752 6.7311 7.71748 5.67041 6.93518 4.88808C6.15287 4.10576 5.09218 3.6657 3.98582 3.66445H1.59358V0.616333H0.069519V17H1.59358V14.7261L21.4063 14.8846V17H22.9304V7.85561C22.9292 6.84545 22.5275 5.87699 21.8132 5.1627C21.0989 4.4484 20.1304 4.04661 19.1202 4.04546ZM1.59358 5.18851H3.98582C4.6881 5.1893 5.36139 5.46863 5.85797 5.96522C6.35456 6.4618 6.63389 7.13509 6.63468 7.83737V9.79007H1.59358V5.18851ZM21.4063 13.3605L1.59358 13.202V11.3142H21.4063V13.3605ZM21.4063 9.79016H10.7379V5.56952H19.1202C19.7263 5.57022 20.3074 5.81129 20.736 6.23987C21.1646 6.66844 21.4056 7.24951 21.4063 7.85561V9.79016Z" fill="#212121"/>
</svg>
