<svg width="24" height="21" viewBox="0 0 24 21" fill="none" xmlns="http://www.w3.org/2000/svg">
<path d="M22.7067 2.2151L15.5735 0.219849L8.41958 2.23503L1.76679 0.347786C1.62423 0.307339 1.47423 0.300502 1.32859 0.327813C1.18294 0.355124 1.04561 0.415837 0.927392 0.505184C0.809172 0.59453 0.713282 0.710074 0.647257 0.842737C0.581233 0.9754 0.546872 1.12157 0.546875 1.26975V17.5902C0.5476 17.8403 0.629516 18.0833 0.7803 18.2829C0.931084 18.4824 1.14258 18.6276 1.38297 18.6965L8.41795 20.6922L15.575 18.6762L22.3305 20.5658C22.4729 20.6057 22.6226 20.612 22.7679 20.5843C22.9132 20.5566 23.0501 20.4957 23.1679 20.4063C23.2857 20.3169 23.3812 20.2014 23.447 20.069C23.5127 19.9365 23.5469 19.7906 23.5469 19.6427V3.3226C23.5462 3.07175 23.4639 2.82795 23.3123 2.62811C23.1607 2.42827 22.9481 2.28328 22.7067 2.2151ZM7.59062 18.8635L2.08021 17.3002V2.03052L7.59062 3.59376V18.8635ZM14.8076 17.2991L9.12396 18.9001V3.6296L14.8076 2.02861V17.2991ZM22.0135 18.8847L16.3409 17.2982V2.02664L22.0135 3.61321V18.8847Z" fill="#212121"/>
</svg>
