<svg width="339" height="94" viewBox="0 0 339 94" fill="none" xmlns="http://www.w3.org/2000/svg">
<path d="M39.7626 93.8829C26.7683 93.8829 16.8926 90.3906 10.1356 83.406C3.37852 76.4213 0 65.164 0 49.6339C0 34.455 3.51846 23.2366 10.5554 15.9788C17.5923 8.68203 27.7079 5.03362 40.9021 5.03362C46.6996 5.03362 52.1572 5.67746 57.275 6.96513V21.6563C52.4371 20.4076 47.4393 19.7833 42.2815 19.7833C36.9239 19.7833 32.5058 20.7198 29.0273 22.5928C25.5888 24.4658 22.99 27.5874 21.2307 31.9577C19.4715 36.2889 18.5919 42.1029 18.5919 49.3997C18.5919 56.9307 19.4515 62.8618 21.1707 67.193C22.89 71.5243 25.4489 74.6069 28.8474 76.4408C32.2859 78.2358 36.724 79.1333 42.1616 79.1333C46.3597 79.1333 51.3975 78.2163 57.275 76.3823V91.0735C54.956 91.9319 52.2172 92.6148 49.0586 93.122C45.9399 93.6293 42.8413 93.8829 39.7626 93.8829Z" fill="white"/>
<path d="M168.233 6.1457H184.906V92.7709H167.033L134.348 35.2354V92.7709H117.675V6.1457H135.547L168.233 63.6812V6.1457Z" fill="white"/>
<path d="M190.831 92.7709V28.7385H208.403V92.7709H190.831ZM199.587 19.3736C195.909 19.3736 193.15 18.5347 191.311 16.8568C189.511 15.1789 188.612 12.7987 188.612 9.71607C188.612 6.63346 189.511 4.25322 191.311 2.57534C193.15 0.858446 195.909 0 199.587 0C203.265 0 206.004 0.858446 207.803 2.57534C209.643 4.25322 210.562 6.63346 210.562 9.71607C210.562 12.7987 209.643 15.1789 207.803 16.8568C206.004 18.5347 203.265 19.3736 199.587 19.3736Z" fill="white"/>
<path d="M233.729 94C229.491 94 225.652 92.8879 222.214 90.6638C218.775 88.4396 216.017 84.9473 213.938 80.1868C211.899 75.3873 210.879 69.3391 210.879 62.0423C210.879 50.6484 213.558 42.103 218.915 36.406C224.273 30.67 232.549 27.802 243.745 27.802C244.904 27.802 246.024 27.8605 247.103 27.9776V16.8569H264.615V87.152L249.802 92.7709L248.602 85.9813H247.763C246.443 88.4786 244.584 90.4492 242.185 91.8929C239.826 93.2976 237.008 94 233.729 94ZM239.426 79.543C240.906 79.543 242.345 79.2308 243.745 78.6065C245.144 77.9822 246.264 77.1042 247.103 75.9726V41.3811C245.504 41.1079 243.905 40.9714 242.305 40.9714C239.267 40.9714 236.768 41.5762 234.809 42.7858C232.849 43.9954 231.35 46.044 230.31 48.9315C229.311 51.78 228.811 55.643 228.811 60.5205C228.811 65.5152 229.231 69.4172 230.071 72.2267C230.95 74.9971 232.15 76.9091 233.669 77.9626C235.228 79.0162 237.147 79.543 239.426 79.543Z" fill="white"/>
<path d="M87.092 91.6377C78.2159 91.6377 71.4188 88.9648 66.7009 83.619C62.0229 78.2342 59.684 69.9424 59.684 64.3624C59.684 42.1208 68.82 31 87.092 31C95.9281 31 102.705 33.7509 107.423 39.2528C112.141 44.7157 114.5 53.027 114.5 64.1868C114.5 80.6145 105.364 91.6377 87.092 91.6377ZM87.092 78.761C89.2511 78.761 91.0103 78.2147 92.3697 77.1221C93.7291 76.0296 94.7686 74.0395 95.4883 71.152C96.208 68.2255 96.5678 69.7277 96.5678 64.4209C96.5678 58.9971 96.188 54.7829 95.4283 51.7783C94.7087 48.7738 93.6691 46.7057 92.3097 45.5741C90.9503 44.4035 89.2111 43.8182 87.092 43.8182C84.9729 43.8182 83.2337 44.384 81.8743 45.5156C80.5149 46.6472 79.4553 48.6957 78.6956 51.6613C77.976 54.6268 77.6161 58.7825 77.6161 64.1283C77.6161 69.5131 77.976 68.0694 78.6956 71.035C79.4153 73.9615 80.4549 75.9905 81.8143 77.1221C83.1737 78.2147 84.933 78.761 87.092 78.761Z" fill="white"/>
<path d="M323.23 23.0557C322.697 22.7853 322.108 22.6448 321.51 22.6457C316.83 22.9757 316.83 29.7857 321.51 30.1157H332.6C333.95 30.1257 335.25 29.6257 336.24 28.7157C339.53 25.8457 337.77 20.0757 333.44 19.5257C331.88 10.1557 318.35 13.7157 321.56 22.6457" fill="white"/>
<path d="M323.23 23.0557C322.697 22.7853 322.108 22.6448 321.51 22.6457C316.83 22.9757 316.83 29.7857 321.51 30.1157H332.6C333.95 30.1257 335.25 29.6257 336.24 28.7157C339.53 25.8457 337.77 20.0757 333.44 19.5257C331.88 10.1557 318.35 13.7157 321.56 22.6457" stroke="white" stroke-width="1.5" stroke-miterlimit="10" stroke-linecap="round" stroke-linejoin="round"/>
<path d="M267 65.408C267 56.5319 269.673 49.7349 275.019 45.0169C280.403 40.339 288.695 38 294.275 38C316.517 38 327.638 47.136 327.638 65.4081C327.638 74.2442 324.887 81.0212 319.385 85.7391C313.922 90.4571 305.611 92.816 294.451 92.816C278.023 92.816 267 83.6801 267 65.408ZM279.877 65.408C279.877 67.5671 280.423 69.3263 281.516 70.6857C282.608 72.0451 284.598 73.0847 287.486 73.8044C290.412 74.524 292 74.8839 294.217 74.8839C299.641 74.8839 303.855 74.5041 306.859 73.7444C309.864 73.0247 311.932 71.9852 313.064 70.6258C314.234 69.2664 314.82 67.5271 314.82 65.408C314.82 63.289 314.254 61.5497 313.122 60.1903C311.991 58.8309 309.942 57.7714 306.976 57.0117C304.011 56.292 299.855 55.9322 294.509 55.9322C292.5 55.9322 290.568 56.292 287.603 57.0117C284.676 57.7314 282.647 58.7709 281.516 60.1303C280.423 61.4897 279.877 63.249 279.877 65.408Z" fill="white"/>
<path d="M324 36H314V44.5L324 61V36Z" fill="white" stroke="white" stroke-linejoin="round"/>
</svg>
